#!OML:ASF H:\Terrain\Patient Classification 1\Animal2\Wednesday\Animal2.ASF
:FULLY-SPECIFIED
:DEGREES
1320
root 13.2187 17.6474 -18.9064 6.36073 -15.2143 -3.42533
lowerback 8.74159 -3.58841 -0.156051
upperback -0.556609 -4.71709 1.51091
thorax -5.33456 -2.30231 2.2795
lowerneck 10.5485 11.1971 19.5625
upperneck -9.93653 15.8919 -24.9995
head -0.804266 8.68296 -11.2593
rclavicle 7.20594e-015 2.70347e-014
rhumerus -57.9404 -22.6957 -48.8076
rradius 19.7187
rwrist 17.0178
rhand -15.9188 21.0685
rfingers 7.12502
rthumb 10.2785 -8.6604
lclavicle 7.20594e-015 2.70347e-014
lhumerus -59.5468 10.1532 77.5285
lradius 14.0198
lwrist -11.0539
lhand 1.41016 14.4984
lfingers 7.12502
lthumb 26.9404 42.598
rfemur -28.6276 -6.66102 25.5223
rtibia 21.164
rfoot -8.71883 8.0576
rtoes 24.9131
lfemur 14.5004 -1.79473 -20.8438
ltibia -6.36111e-015
lfoot -16.0779 0.543649
ltoes -23.8295
1321
root 13.1703 17.6428 -18.8062 6.41706 -15.2468 -3.599
lowerback 8.25408 -3.52859 -0.0400336
upperback -0.348332 -4.62606 1.62195
thorax -4.84526 -2.26735 2.2724
lowerneck 10.2491 11.2561 19.5864
upperneck -9.74588 15.957 -25.0186
head -0.681033 8.69823 -11.2267
rclavicle 9.24349e-014 -2.54444e-014
rhumerus -57.8767 -23.2741 -48.4211
rradius 19.5655
rwrist 17.0936
rhand -16.4209 20.0619
rfingers 7.12502
rthumb 9.79407 -9.69031
lclavicle 9.24349e-014 -2.54444e-014
lhumerus -59.4564 10.0972 77.9319
lradius 13.3403
lwrist -11.427
lhand 1.53096 13.5294
lfingers 7.12502
lthumb 27.0559 41.6111
rfemur -28.4281 -6.89659 25.83
rtibia 21.3142
rfoot -7.70194 8.10574
rtoes 23.4129
lfemur 14.8904 -1.85447 -20.6297
ltibia 5.40694e-014
lfoot -15.9777 0.615133
ltoes -23.7462
1322
root 13.1224 17.6367 -18.7104 6.45655 -15.1812 -3.83602
lowerback 8.03242 -3.50369 0.182391
upperback -0.320635 -4.56896 1.73851
thorax -4.70165 -2.24555 2.24541
lowerneck 10.0826 11.229 19.8478
upperneck -9.34058 15.9834 -25.1617
head -0.496129 8.69884 -11.2796
rclavicle 1.71452e-014 1.27222e-014
rhumerus -58.0241 -23.6288 -47.9685
rradius 19.3705
rwrist 17.1867
rhand -16.6904 19.3967
rfingers 7.12502
rthumb 9.5341 -10.3676
lclavicle 1.71452e-014 1.27222e-014
lhumerus -59.7361 10.2176 77.6918
lradius 13.4893
lwrist -10.4001
lhand 3.55175 13.5909
lfingers 7.12502
lthumb 28.9877 41.3568
rfemur -28.2826 -7.29841 26.226
rtibia 21.4712
rfoot -6.62143 8.42996
rtoes 24.4364
lfemur 15.3353 -2.00513 -20.343
ltibia 0
lfoot -15.8292 0.77588
ltoes -25.1289
1323
root 13.0775 17.6333 -18.6144 6.2041 -15.157 -3.76979
lowerback 8.08962 -3.50587 0.144204
upperback -0.276518 -4.57438 1.75912
thorax -4.68286 -2.24744 2.29059
lowerneck 10.0055 11.2094 20.1032
upperneck -9.01214 16.0209 -25.3599
head -0.339876 8.71352 -11.3616
rclavicle -1.16786e-014 -1.88845e-014
rhumerus -58.1408 -24.1767 -47.2293
rradius 18.9713
rwrist 17.8132
rhand -16.9407 18.3429
rfingers 7.12502
rthumb 9.29259 -11.4323
lclavicle -1.16786e-014 -1.88845e-014
lhumerus -60.1527 9.40359 78.9399
lradius 13.7044
lwrist -10.5273
lhand 3.18473 13.0311
lfingers 7.12502
lthumb 28.6371 40.8567
rfemur -27.8531 -7.72591 26.2228
rtibia 21.5659
rfoot -5.91269 8.78932
rtoes 26.8022
lfemur 16.0114 -2.14033 -20.3994
ltibia 6.67916e-014
lfoot -15.5125 0.717892
ltoes -25.1077
1324
root 13.0344 17.6334 -18.5195 5.94737 -15.2057 -3.84271
lowerback 8.17152 -3.49232 0.241222
upperback -0.138386 -4.54472 1.82366
thorax -4.58804 -2.23593 2.29944
lowerneck 9.80632 11.2381 20.1607
upperneck -8.79418 16.0632 -25.5132
head -0.214157 8.7275 -11.3912
rclavicle -6.54002e-014 1.5704e-014
rhumerus -58.1456 -25.226 -46.1296
rradius 18.3306
rwrist 19.2628
rhand -17.2199 17.1941
rfingers 7.12502
rthumb 9.02318 -12.5929
lclavicle -6.54002e-014 1.5704e-014
lhumerus -60.2652 9.12297 79.4793
lradius 13.8119
lwrist -10.6497
lhand 3.89428 12.6315
lfingers 7.12502
lthumb 29.3148 40.3407
rfemur -27.3289 -8.46079 26.4365
rtibia 21.6253
rfoot -5.76874 9.31784
rtoes 25.3977
lfemur 16.7121 -2.18946 -20.3261
ltibia 3.18055e-015
lfoot -15.0798 0.912266
ltoes -26.4065
1325
root 12.9911 17.6385 -18.4213 5.88015 -15.292 -4.09761
lowerback 8.18204 -3.41826 0.546248
upperback -0.153869 -4.41154 1.93546
thorax -4.62894 -2.17545 2.23191
lowerneck 9.7664 11.1446 20.1553
upperneck -8.60108 15.9535 -25.5185
head -0.179967 8.6689 -11.3929
rclavicle -3.97569e-016 -1.98785e-016
rhumerus -58.305 -25.9557 -45.1913
rradius 17.7457
rwrist 20.2595
rhand -17.0182 16.8894
rfingers 7.12502
rthumb 9.21776 -12.8891
lclavicle -3.97569e-016 -1.98785e-016
lhumerus -60.346 9.02329 79.5292
lradius 13.9272
lwrist -10.1677
lhand 5.68632 13.1086
lfingers 7.12502
lthumb 31.0244 40.5054
rfemur -26.9068 -9.15247 26.8595
rtibia 21.7335
rfoot -5.82178 9.7844
rtoes 20.9848
lfemur 17.2389 -2.18823 -20.0572
ltibia -3.18055e-015
lfoot -14.6412 1.016
ltoes -27.7998
1326
root 12.9481 17.6502 -18.3237 5.94433 -15.287 -4.46489
lowerback 8.10663 -3.36157 0.9369
upperback -0.220339 -4.28987 2.14656
thorax -4.67242 -2.12188 2.2173
lowerneck 10.0383 11.0906 19.8747
upperneck -8.72401 15.8673 -25.4162
head -0.316305 8.64517 -11.3525
rclavicle -3.69243e-014 1.6201e-014
rhumerus -58.498 -26.7732 -43.9928
rradius 17.0742
rwrist 21.4579
rhand -16.8054 16.8551
rfingers 7.12502
rthumb 9.42308 -12.9142
lclavicle -3.69243e-014 1.6201e-014
lhumerus -60.3337 9.1086 79.4909
lradius 13.6071
lwrist -10.8197
lhand 6.36137 12.713
lfingers 7.12502
lthumb 31.6676 39.9851
rfemur -26.4909 -9.46855 27.2983
rtibia 21.8153
rfoot -6.09015 9.97498
rtoes 17.9825
lfemur 17.6331 -2.27218 -19.6414
ltibia 9.54166e-015
lfoot -14.1682 0.921452
ltoes -27.8274
1327
root 12.9047 17.6635 -18.2299 5.91858 -15.2184 -4.74466
lowerback 8.00282 -3.38305 1.20768
upperback -0.169737 -4.28713 2.37017
thorax -4.56436 -2.12587 2.28874
lowerneck 10.0378 11.2005 19.542
upperneck -8.59001 15.9931 -25.3371
head -0.287376 8.71159 -11.2539
rclavicle -5.11871e-014 -2.54444e-014
rhumerus -58.531 -27.9723 -42.5225
rradius 16.259
rwrist 23.3285
rhand -16.8262 16.1159
rfingers 7.12502
rthumb 9.403 -13.6544
lclavicle -5.11871e-014 -2.54444e-014
lhumerus -60.1524 9.00922 80.0685
lradius 13.2698
lwrist -12.1322
lhand 5.5261 11.9774
lfingers 7.12502
lthumb 30.8716 39.4032
rfemur -25.9671 -9.78004 27.6232
rtibia 21.7819
rfoot -6.38402 10.449
rtoes 19.8312
lfemur 18.0844 -2.43073 -19.2978
ltibia -9.22361e-014
lfoot -13.6673 0.71659
ltoes -25.8748
1328
root 12.8625 17.6762 -18.1316 5.80397 -15.2328 -4.84363
lowerback 7.89519 -3.39767 1.37998
upperback -0.196227 -4.28836 2.48457
thorax -4.53556 -2.12971 2.30551
lowerneck 10.1059 11.2052 19.4798
upperneck -8.13375 16.0654 -25.3467
head -0.160845 8.7484 -11.2268
rclavicle -4.37761e-014 -2.02512e-014
rhumerus -58.977 -29.4892 -40.4256
rradius 15.3894
rwrist 25.8242
rhand -16.7607 15.2641
rfingers 7.12502
rthumb 9.46625 -14.5033
lclavicle -4.37761e-014 -2.02512e-014
lhumerus -60.2015 8.9349 80.304
lradius 13.8171
lwrist -11.71
lhand 6.76957 13.052
lfingers 7.12502
lthumb 32.0563 40.2467
rfemur -25.3508 -9.94656 27.696
rtibia 21.6921
rfoot -6.53604 11.0195
rtoes 23.9598
lfemur 18.584 -2.52298 -19.1568
ltibia -5.40694e-014
lfoot -13.0513 0.239827
ltoes -22.5429
1329
root 12.8231 17.6891 -18.0356 5.76767 -15.1924 -4.99969
lowerback 7.80195 -3.36927 1.655
upperback -0.289409 -4.22133 2.5868
thorax -4.59459 -2.10155 2.24911
lowerneck 10.4799 11.0552 19.5688
upperneck -7.96549 15.9463 -25.5428
head -0.178329 8.71599 -11.3473
rclavicle -7.78717e-014 9.25358e-015
rhumerus -60.1063 -31.6579 -37.252
rradius 14.4346
rwrist 29.3472
rhand -16.6227 14.5928
rfingers 7.12502
rthumb 9.59936 -15.1685
lclavicle -7.78717e-014 9.25358e-015
lhumerus -60.2601 8.87436 80.2535
lradius 14.2387
lwrist -11.9327
lhand 7.53494 13.8552
lfingers 7.12502
lthumb 32.7847 40.9006
rfemur -24.7835 -9.94262 27.7842
rtibia 21.6034
rfoot -6.56072 11.4074
rtoes 26.751
lfemur 18.9803 -2.66458 -18.9503
ltibia -2.54444e-014
lfoot -12.2372 -0.140376
ltoes -21.2031
1330
root 12.7829 17.6997 -17.9421 5.679 -15.0471 -5.09583
lowerback 7.7397 -3.33619 1.83085
upperback -0.292685 -4.15828 2.70435
thorax -4.56847 -2.07354 2.26199
lowerneck 10.6778 11.0178 19.4478
upperneck -7.93192 15.9105 -25.5835
head -0.218013 8.71446 -11.3624
rclavicle 1.9748e-014 -3.95581e-014
rhumerus -61.137 -33.6419 -34.4545
rradius 13.6213
rwrist 32.6215
rhand -16.6571 13.8664
rfingers 7.12502
rthumb 9.56619 -15.8965
lclavicle 1.9748e-014 -3.95581e-014
lhumerus -59.8932 9.22707 79.671
lradius 14.0494
lwrist -13.3425
lhand 7.90306 14.0399
lfingers 7.12502
lthumb 33.1349 41.0116
rfemur -24.2177 -10.3097 27.8925
rtibia 21.5296
rfoot -6.60705 11.9966
rtoes 27.435
lfemur 19.392 -2.9139 -18.8112
ltibia 4.45278e-014
lfoot -11.2503 -0.0987141
ltoes -22.7809
1331
root 12.7425 17.7132 -17.8471 5.60222 -14.9661 -5.20226
lowerback 7.61907 -3.28195 2.01072
upperback -0.311311 -4.06866 2.82812
thorax -4.52582 -2.03253 2.27287
lowerneck 10.689 11.0109 19.3596
upperneck -7.59578 15.9406 -25.5254
head -0.134046 8.72537 -11.313
rclavicle -1.31074e-014 -2.48481e-015
rhumerus -61.8341 -34.9018 -32.6713
rradius 13.14
rwrist 34.9921
rhand -16.5414 13.4485
rfingers 7.12502
rthumb 9.67781 -16.3092
lclavicle -1.31074e-014 -2.48481e-015
lhumerus -59.4726 9.35399 79.3659
lradius 13.8637
lwrist -14.6518
lhand 7.94854 14.3973
lfingers 7.12502
lthumb 33.1781 41.3597
rfemur -23.6896 -10.6855 28.0278
rtibia 21.5031
rfoot -6.85958 12.4313
rtoes 26.7313
lfemur 19.8238 -3.0945 -18.6912
ltibia 1.59028e-014
lfoot -10.1007 0.0699016
ltoes -24.3504
1332
root 12.7034 17.7296 -17.7541 5.55867 -14.8849 -5.329
lowerback 7.45725 -3.21231 2.24248
upperback -0.372844 -3.95597 2.92087
thorax -4.51081 -1.98146 2.21964
lowerneck 10.6418 10.8249 19.7131
upperneck -6.96698 15.8157 -25.7922
head 0.0757376 8.65705 -11.4467
rclavicle -8.79498e-014 2.57426e-014
rhumerus -62.0789 -35.514 -32.0817
rradius 12.9348
rwrist 36.1994
rhand -16.1621 13.3053
rfingers 7.12502
rthumb 10.0438 -16.435
lclavicle -8.79498e-014 2.57426e-014
lhumerus -59.0846 8.9339 79.6451
lradius 14.0007
lwrist -14.9518
lhand 7.07328 14.8344
lfingers 7.12502
lthumb 32.3454 41.9705
rfemur -23.2172 -10.8345 28.1422
rtibia 21.5048
rfoot -7.21368 12.5507
rtoes 26.0809
lfemur 17.3938 -3.2402 -18.6043
ltibia 5.28753
lfoot -11.3045 0.0875213
ltoes -24.0965
1333
root 12.6647 17.7431 -17.6646 5.44974 -14.6464 -5.16701
lowerback 7.34252 -3.18887 2.16758
upperback -0.283501 -3.9367 2.98684
thorax -4.34373 -1.97025 2.31562
lowerneck 10.0885 10.8222 19.8266
upperneck -6.42388 15.8233 -26.0192
head 0.354926 8.62823 -11.4758
rclavicle -1.39646e-014 2.22639e-014
rhumerus -61.5778 -36.1182 -32.4561
rradius 12.8353
rwrist 36.6109
rhand -15.9431 13.0345
rfingers 7.12502
rthumb 10.2551 -16.6955
lclavicle -1.39646e-014 2.22639e-014
lhumerus -58.2711 9.85363 78.2119
lradius 13.9815
lwrist -15.3836
lhand 7.87017 14.7384
lfingers 7.12502
lthumb 33.1036 41.7167
rfemur -22.7689 -11.246 27.988
rtibia 21.4617
rfoot -7.56658 12.7338
rtoes 25.5387
lfemur 15.6048 -3.58593 -18.7186
ltibia 9.15659
lfoot -11.681 -0.192432
ltoes -23.1825
1334
root 12.6242 17.7581 -17.5781 5.42336 -14.3363 -4.98205
lowerback 7.13586 -3.18536 2.09649
upperback -0.321711 -3.94426 3.02129
thorax -4.25993 -1.97267 2.37958
lowerneck 10.27 10.8028 19.712
upperneck -6.28822 15.8288 -26.0248
head 0.352648 8.64281 -11.4701
rclavicle -4.57205e-015 1.33186e-014
rhumerus -61.1012 -36.4237 -33.0864
rradius 12.8383
rwrist 36.7501
rhand -15.8778 11.8568
rfingers 7.12502
rthumb 10.3181 -17.8701
lclavicle -4.57205e-015 1.33186e-014
lhumerus -57.668 10.0026 77.7753
lradius 14.3098
lwrist -15.7668
lhand 8.50543 15.8941
lfingers 7.12502
lthumb 33.7074 42.7423
rfemur -22.4235 -11.7626 27.8559
rtibia 21.407
rfoot -7.96141 12.8669
rtoes 25.0607
lfemur 14.0806 -4.0136 -18.7866
ltibia 12.2774
lfoot -11.5976 -0.270272
ltoes -22.442
